<?xml version="1.0" standalone="no"?><!DOCTYPE svg PUBLIC "-//W3C//DTD SVG 1.1//EN" "http://www.w3.org/Graphics/SVG/1.1/DTD/svg11.dtd"><svg t="1569916255645" class="icon" viewBox="0 0 1024 1024" version="1.1" xmlns="http://www.w3.org/2000/svg" p-id="2407" xmlns:xlink="http://www.w3.org/1999/xlink" width="200" height="200"><defs><style type="text/css"></style></defs><path d="M512 128C264.576 128 64 328.576 64 576s200.576 448 448 448 448-200.576 448-448-200.576-448-448-448z m0 808c-198.824 0-360-161.178-360-360 0-198.824 161.176-360 360-360 198.822 0 360 161.176 360 360 0 198.822-161.178 360-360 360z m422.784-648.826C950.826 259.122 960 226.632 960 192 960 85.96 874.04 0 768 0c-61.818 0-116.802 29.222-151.92 74.596 131.884 27.236 245.206 105.198 318.704 212.578zM407.92 74.596C372.804 29.222 317.818 0 256 0 149.96 0 64 85.96 64 192c0 34.632 9.174 67.122 25.216 95.174 73.5-107.38 186.822-185.342 318.704-212.578zM448 320h64v320h-64V320z m64 256h192v64H512v-64z" p-id="2408" fill="#ff663c"></path></svg>