<?xml version="1.0" standalone="no"?><!DOCTYPE svg PUBLIC "-//W3C//DTD SVG 1.1//EN" "http://www.w3.org/Graphics/SVG/1.1/DTD/svg11.dtd"><svg t="1569919277213" class="icon" viewBox="0 0 1024 1024" version="1.1" xmlns="http://www.w3.org/2000/svg" p-id="3319" xmlns:xlink="http://www.w3.org/1999/xlink" width="200" height="200"><defs><style type="text/css"></style></defs><path d="M826.442552 259.753999l-15.518438-37.422308c-184.594205 118.078279-318.340325 266.601964-378.600781 341.447603L285.270139 443.304432l-65.22656 54.614875 254.308987 270.169209C518.392594 651.121548 657.011698 422.352237 826.442552 259.753999z" p-id="3320" fill="#ff663c"></path><path d="M898.217249 67.36527 125.781728 67.36527c-35.549657 0-64.370053 28.819372-64.370053 64.370053l0 760.527306c0 35.549657 28.819372 64.3721 64.370053 64.3721l772.435521 0c35.551704 0 64.370053-28.821419 64.370053-64.3721L962.587302 131.735323C962.587302 96.185666 933.769976 67.36527 898.217249 67.36527zM898.217249 893.110951 125.781728 893.110951 125.781728 130.882909l772.435521 0L898.217249 893.110951z" p-id="3321" fill="#ff663c"></path></svg>