<?xml version="1.0" standalone="no"?><!DOCTYPE svg PUBLIC "-//W3C//DTD SVG 1.1//EN" "http://www.w3.org/Graphics/SVG/1.1/DTD/svg11.dtd"><svg t="1569919262579" class="icon" viewBox="0 0 1024 1024" version="1.1" xmlns="http://www.w3.org/2000/svg" p-id="3190" xmlns:xlink="http://www.w3.org/1999/xlink" width="200" height="200"><defs><style type="text/css"></style></defs><path d="M857.6 960.2H168.4c-57 0-103.4-46.4-103.4-103.4V167.6c0-57 46.4-103.4 103.4-103.4h689.2c57 0 103.4 46.4 103.4 103.4v689.2c0 57-46.4 103.4-103.4 103.4zM168.4 133.1c-19 0-34.5 15.5-34.5 34.5v689.2c0 19 15.5 34.5 34.5 34.5h689.2c19 0 34.5-15.4 34.5-34.5V167.6c0-19-15.4-34.5-34.5-34.5H168.4z" p-id="3191"></path></svg>