<?xml version="1.0" standalone="no"?><!DOCTYPE svg PUBLIC "-//W3C//DTD SVG 1.1//EN" "http://www.w3.org/Graphics/SVG/1.1/DTD/svg11.dtd"><svg t="1568946058313" class="icon" viewBox="0 0 1024 1024" version="1.1" xmlns="http://www.w3.org/2000/svg" p-id="3116" xmlns:xlink="http://www.w3.org/1999/xlink" width="200" height="200"><defs><style type="text/css"></style></defs><path d="M507.699 16.766c-271.033 0-491.52 220.487-491.52 491.52s220.487 491.52 491.52 491.52 491.52-220.487 491.52-491.52-220.487-491.52-491.52-491.52zM507.699 958.846c-248.436 0-450.56-202.124-450.56-450.56s202.124-450.56 450.56-450.56 450.56 202.124 450.56 450.56-202.124 450.56-450.56 450.56z" p-id="3117" fill="#ff663c"></path><path d="M331.339 508.286c0 97.401 78.959 176.361 176.361 176.361 97.401 0 176.361-78.959 176.361-176.361 0-97.401-78.959-176.361-176.361-176.361-97.401 0-176.361 78.959-176.361 176.361z" p-id="3118" fill="#ff663c"></path></svg>