<?xml version="1.0" standalone="no"?><!DOCTYPE svg PUBLIC "-//W3C//DTD SVG 1.1//EN" "http://www.w3.org/Graphics/SVG/1.1/DTD/svg11.dtd"><svg t="1569737476350" class="icon" viewBox="0 0 1024 1024" version="1.1" xmlns="http://www.w3.org/2000/svg" p-id="6105" xmlns:xlink="http://www.w3.org/1999/xlink" width="200" height="200"><defs><style type="text/css"></style></defs><path d="M78.65856 551.63392c-9.984 9.984-26.15296 10.01472-36.11136 0.05632-9.95328-9.95328-9.9328-26.12224 0.05632-36.10624l397.824-397.824c39.94624-39.94624 104.61184-40.04864 144.4352-0.22528l396.59008 396.58496c9.95328 9.9584 9.9328 26.12224-0.05632 36.11136-9.984 9.984-26.15296 10.0096-36.11136 0.0512L548.70016 153.7024c-19.9168-19.9168-52.24448-19.8656-72.2176 0.11264l-397.824 397.824z m0 378.48064c-9.984 9.984-26.15296 10.01472-36.11136 0.05632-9.95328-9.95328-9.9328-26.12224 0.05632-36.10624l397.824-397.824c39.94624-39.94624 104.61184-40.04864 144.4352-0.22528l396.59008 396.58496c9.95328 9.9584 9.9328 26.12224-0.05632 36.11136-9.984 9.984-26.15296 10.0096-36.11136 0.0512l-396.58496-396.57984c-19.9168-19.9168-52.24448-19.8656-72.2176 0.11264l-397.824 397.824z" fill="#ff663c" p-id="6106"></path></svg>